<?xml version="1.0" standalone="no"?>
<!DOCTYPE svg PUBLIC "-//W3C//DTD SVG 20010904//EN"
 "http://www.w3.org/TR/2001/REC-SVG-20010904/DTD/svg10.dtd">
<svg version="1.0" xmlns="http://www.w3.org/2000/svg"
 width="1297.000000pt" height="527.000000pt" viewBox="0 0 1297.000000 527.000000"
 preserveAspectRatio="xMidYMid meet">
<metadata>
Created by potrace 1.16, written by Peter Selinger 2001-2019
</metadata>
<g transform="translate(0.000000,527.000000) scale(0.100000,-0.100000)"
fill="#000000" stroke="none">
<path fill="#FFFFFF" d="M8620 4745 c-376 -43 -706 -190 -929 -415 -98 -98 -163 -190 -227
-320 -52 -106 -69 -158 -94 -290 -76 -399 79 -772 383 -927 59 -29 57 -31 -58
-69 -116 -37 -312 -139 -355 -184 -3 -3 -18 -14 -34 -24 -46 -29 -194 -175
-250 -246 -70 -88 -130 -183 -161 -255 -14 -33 -30 -68 -35 -77 -5 -9 -22 -63
-37 -120 -26 -96 -28 -116 -27 -293 0 -175 2 -197 26 -275 36 -117 60 -171
115 -252 95 -142 259 -283 422 -363 47 -23 97 -46 111 -50 14 -4 39 -13 55
-20 47 -21 160 -52 285 -77 104 -21 141 -23 385 -23 238 1 284 3 385 23 391
77 679 219 928 457 193 185 306 371 369 608 30 113 42 349 24 466 -29 188
-117 363 -258 512 -71 75 -227 186 -274 196 -27 5 -42 33 -19 33 20 0 145 63
215 108 67 43 305 270 305 292 0 5 15 31 33 57 59 84 112 209 139 333 30 133
29 311 -2 434 -12 50 -26 97 -30 105 -5 9 -21 43 -36 76 -46 97 -99 170 -194
265 -54 53 -64 62 -126 106 -240 171 -645 253 -1034 209z m293 -566 c106 -16
213 -76 277 -155 112 -138 121 -395 20 -596 -77 -155 -209 -281 -353 -338
-146 -58 -341 -53 -467 10 -180 91 -268 327 -211 565 26 107 59 178 121 261
152 203 365 291 613 253z m-269 -1779 c110 -29 171 -63 243 -135 99 -99 140
-208 144 -385 5 -224 -84 -434 -254 -597 -150 -144 -324 -215 -527 -216 -230
-1 -439 105 -509 260 -13 26 -26 55 -31 65 -20 36 -33 155 -27 247 9 156 72
321 172 451 131 170 306 279 520 324 59 12 197 5 269 -14z"/>
<path fill="#FEDE0D" d="M1188 4720 l-31 -31 7 -82 c4 -45 10 -84 15 -87 4 -3 13 -31 20 -62
7 -32 17 -58 22 -58 5 0 8 -3 7 -7 -2 -9 23 -65 32 -73 4 -3 12 -21 20 -40 17
-41 63 -111 85 -130 8 -7 15 -17 15 -22 0 -19 242 -238 264 -238 8 0 16 -6 19
-13 3 -7 23 -19 46 -27 23 -7 41 -16 41 -20 0 -4 14 -10 31 -14 17 -3 45 -12
62 -20 74 -32 90 -36 125 -36 21 0 42 -4 48 -10 6 -6 542 -11 1519 -12 l1510
-3 48 -25 c90 -46 137 -120 144 -228 5 -66 -19 -192 -41 -215 -6 -7 -19 -24
-29 -39 -24 -39 -104 -76 -184 -87 -81 -12 -261 -16 -270 -7 -8 7 -48 8 -55 1
-7 -7 -375 -8 -386 -2 -4 3 -101 3 -217 2 -282 -5 -387 -5 -395 0 -3 2 -31 0
-62 -4 -31 -4 -109 -4 -174 0 -66 4 -120 4 -122 0 -1 -4 -64 -5 -140 -2 -184
7 -269 7 -315 0 -20 -4 -40 -3 -43 2 -7 11 -71 12 -78 1 -3 -5 -35 -5 -73 0
-42 5 -71 4 -77 -2 -13 -13 -49 -13 -63 1 -7 7 -19 8 -30 4 -29 -13 -43 -14
-49 -4 -9 15 -1010 12 -1034 -3 -16 -10 -24 -10 -40 0 -15 9 -161 12 -629 12
-590 0 -609 -1 -633 -20 -14 -11 -28 -33 -31 -50 -7 -32 8 -174 20 -193 4 -7
9 -16 10 -22 14 -61 27 -92 65 -166 24 -47 54 -99 66 -116 12 -17 22 -33 22
-36 0 -18 199 -217 216 -217 4 0 22 -13 41 -30 18 -17 40 -30 47 -30 8 0 16
-6 19 -13 3 -7 23 -19 46 -27 23 -7 41 -17 41 -22 0 -4 7 -8 15 -8 8 0 34 -9
58 -19 23 -11 71 -25 107 -32 36 -6 71 -17 79 -23 10 -8 606 -12 2130 -16
l2116 -5 42 -25 c26 -16 58 -49 85 -90 43 -64 43 -66 43 -155 0 -74 -4 -99
-24 -140 -53 -113 -104 -154 -232 -183 -81 -19 -143 -19 -1750 -20 -1090 -1
-1674 -4 -1691 -11 -47 -18 -61 -52 -53 -126 3 -36 10 -67 15 -70 4 -2 11 -31
15 -62 3 -32 14 -74 24 -93 10 -19 21 -48 25 -65 4 -16 11 -32 14 -35 7 -5 38
-69 40 -83 1 -4 6 -13 12 -20 6 -6 20 -25 30 -42 11 -16 25 -39 32 -49 17 -26
174 -186 183 -186 3 0 29 -17 58 -38 29 -21 68 -44 87 -52 19 -8 37 -17 40
-20 3 -3 25 -12 50 -20 25 -7 50 -17 56 -22 6 -4 64 -17 130 -29 116 -20 150
-20 1469 -22 953 0 1365 3 1400 10 28 6 91 17 140 23 50 7 95 16 100 20 6 4
26 11 45 15 19 4 54 16 77 26 23 11 45 19 50 19 12 0 181 87 213 110 21 15 80
53 102 66 10 6 31 25 47 43 15 17 32 31 38 31 17 0 253 251 253 269 0 5 9 16
19 25 11 10 25 32 32 49 7 18 28 53 45 78 18 26 38 66 44 90 7 24 16 49 20 54
5 6 14 33 21 60 6 28 16 55 20 61 19 24 41 278 35 398 -6 123 -23 247 -35 256
-4 3 -13 31 -20 63 -7 31 -16 57 -20 57 -4 0 -14 18 -21 40 -7 22 -16 40 -21
40 -4 0 -10 11 -13 24 -3 14 -16 37 -29 53 -13 15 -26 35 -29 43 -11 30 -139
170 -200 220 -94 75 -99 81 -92 104 4 12 47 63 95 115 49 51 89 100 89 107 0
8 4 14 9 14 12 0 111 201 111 226 0 11 3 24 7 28 5 4 8 11 9 14 0 4 3 14 7 22
26 64 56 315 41 348 -4 9 -7 20 -6 24 2 10 -28 170 -35 188 -3 8 -5 19 -4 24
1 6 -2 19 -7 30 -6 12 -15 37 -22 56 -18 51 -54 120 -62 120 -5 0 -8 6 -8 13
0 7 -13 31 -30 53 -16 21 -30 42 -30 47 0 4 -7 15 -15 25 -90 104 -121 137
-181 191 -38 34 -76 69 -85 77 -9 8 -19 14 -23 14 -4 0 -30 17 -59 38 -43 31
-93 60 -117 67 -26 8 -68 29 -80 40 -8 7 -44 19 -80 25 -36 6 -69 15 -75 18
-52 34 -83 35 -2218 39 l-2097 4 -32 -31z"/>
<path fill="#FFFFFF" d="M12225 4693 c-29 -7 -130 -47 -210 -84 -39 -17 -86 -37 -105 -44 -19
-7 -60 -24 -90 -38 -30 -14 -109 -49 -175 -77 -66 -29 -138 -60 -160 -70 -22
-10 -128 -55 -235 -100 -183 -77 -367 -155 -435 -185 -16 -8 -64 -28 -105 -45
-41 -17 -84 -42 -96 -54 -27 -30 -45 -94 -110 -391 -53 -240 -52 -285 3 -306
35 -14 104 -5 157 21 23 10 75 33 116 50 41 18 93 40 115 50 22 9 56 24 75 32
19 9 51 23 70 31 19 8 113 49 208 91 95 42 177 76 182 76 14 0 12 -56 -6 -125
-14 -56 -24 -99 -75 -325 -10 -47 -27 -123 -38 -170 -29 -130 -61 -274 -86
-390 -45 -209 -100 -456 -145 -655 -10 -44 -28 -125 -39 -180 -26 -118 -55
-249 -81 -360 -10 -44 -26 -114 -34 -155 -9 -41 -24 -113 -35 -160 -115 -511
-115 -510 -97 -547 11 -23 25 -35 53 -42 50 -14 725 -15 775 -1 69 19 68 17
184 520 13 58 31 132 39 165 8 33 22 94 31 135 9 41 24 113 35 160 11 47 28
123 38 170 11 47 38 168 60 270 23 102 46 201 51 220 6 19 17 69 26 110 18 86
43 196 73 325 12 50 30 131 40 180 11 50 41 182 66 295 26 113 55 241 65 285
23 108 58 262 80 360 10 44 27 121 38 170 11 50 33 142 47 205 123 526 122
519 62 564 -25 19 -43 21 -170 23 -78 1 -151 -1 -162 -4z"/>
</g>
</svg>
