<?xml version="1.0" encoding="UTF-8"?>
<svg version="1.1" xmlns="http://www.w3.org/2000/svg" width="48" height="48">
<path d="M0 0 C15.84 0 31.68 0 48 0 C48 15.84 48 31.68 48 48 C32.16 48 16.32 48 0 48 C0 32.16 0 16.32 0 0 Z " fill="#24303A" transform="translate(0,0)"/>
<path d="M0 0 C0.99 0 1.98 0 3 0 C3 9.57 3 19.14 3 29 C-12.84 29 -28.68 29 -45 29 C-45 22.07 -45 15.14 -45 8 C-37.74 8 -30.48 8 -23 8 C-23 8.66 -23 9.32 -23 10 C-27.95 10 -32.9 10 -38 10 C-37.34 11.32 -36.68 12.64 -36 14 C-33.75006641 14.02707139 -31.50003905 14.04642829 -29.25 14.0625 C-27.37054687 14.07990234 -27.37054687 14.07990234 -25.453125 14.09765625 C-22.67034622 14.01895776 -20.63878531 13.69441719 -18 13 C-15.65885633 13.27313343 -13.32249342 13.59802999 -11 14 C-10.06213918 8.94990405 -10.06213918 8.94990405 -11 4 C-7.375 1 -7.375 1 -4 1 C-4.31182069 2.41681634 -4.62448737 3.83344651 -4.9375 5.25 C-5.11152344 6.03890625 -5.28554688 6.8278125 -5.46484375 7.640625 C-5.947556 9.76878703 -6.46163178 11.88532842 -7 14 C-6.01 13.67 -5.02 13.34 -4 13 C-2.74359742 9.98359945 -2.74359742 9.98359945 -1.8125 6.4375 C-1.46832031 5.23996094 -1.12414063 4.04242188 -0.76953125 2.80859375 C-0.38861328 1.41833984 -0.38861328 1.41833984 0 0 Z " fill="#222F3A" transform="translate(45,19)"/>
<path d="M0 0 C2.60444348 -0.05394705 5.20776998 -0.09364469 7.8125 -0.125 C8.55048828 -0.14175781 9.28847656 -0.15851562 10.04882812 -0.17578125 C13.91246426 -0.21074628 15.70903668 -0.19397555 19 2 C20.1875 5.625 20.1875 5.625 21 9 C21.66 9 22.32 9 23 9 C22.95875 7.88625 22.9175 6.7725 22.875 5.625 C23 2 23 2 25 0 C28.625 -0.125 28.625 -0.125 32 0 C32.495 1.485 32.495 1.485 33 3 C33.94875 2.505 34.8975 2.01 35.875 1.5 C39 0 39 0 41 0 C40.31092878 3.65943647 39.43178734 7.22441959 38.4375 10.8125 C38.16808594 11.78832031 37.89867187 12.76414062 37.62109375 13.76953125 C37.41613281 14.50558594 37.21117187 15.24164063 37 16 C35.68 16.33 34.36 16.66 33 17 C33.54855348 12.428721 34.41744803 8.32564205 36 4 C35.21625 4.495 34.4325 4.99 33.625 5.5 C31 7 31 7 29 7 C29.66 7.99 30.32 8.98 31 10 C30.67873872 12.63434254 30.18644952 14.62710097 29 17 C28.28972656 16.98839844 27.57945313 16.97679688 26.84765625 16.96484375 C25.92855469 16.95582031 25.00945313 16.94679688 24.0625 16.9375 C22.68771484 16.92009766 22.68771484 16.92009766 21.28515625 16.90234375 C19.03406673 16.74050951 19.03406673 16.74050951 18 18 C15.69006618 18.12557162 13.37581464 18.17575729 11.0625 18.1875 C9.79535156 18.20167969 8.52820312 18.21585938 7.22265625 18.23046875 C4 18 4 18 2 16 C2 15.01 2 14.02 2 13 C6.95 13 11.9 13 17 13 C17 12.34 17 11.68 17 11 C10.4 11 3.8 11 -3 11 C-3.33 9.68 -3.66 8.36 -4 7 C2.27 7 8.54 7 15 7 C15 6.01 15 5.02 15 4 C10.71 4 6.42 4 2 4 C1.34 2.68 0.68 1.36 0 0 Z " fill="#E3DF2B" transform="translate(5,16)"/>
<path d="M0 0 C1.670625 0.061875 1.670625 0.061875 3.375 0.125 C3.705 1.115 4.035 2.105 4.375 3.125 C5.32375 2.63 6.2725 2.135 7.25 1.625 C10.375 0.125 10.375 0.125 12.375 0.125 C11.68592878 3.78443647 10.80678734 7.34941959 9.8125 10.9375 C9.54308594 11.91332031 9.27367188 12.88914062 8.99609375 13.89453125 C8.79113281 14.63058594 8.58617188 15.36664063 8.375 16.125 C7.055 16.455 5.735 16.785 4.375 17.125 C4.92355348 12.553721 5.79244803 8.45064205 7.375 4.125 C6.59125 4.62 5.8075 5.115 5 5.625 C2.375 7.125 2.375 7.125 0.375 7.125 C1.365 8.61 1.365 8.61 2.375 10.125 C2.05373872 12.75934254 1.56144952 14.75210097 0.375 17.125 C-1.95794775 17.16741723 -4.29202567 17.16592937 -6.625 17.125 C-7.625 16.125 -7.625 16.125 -7.8125 13.8125 C-7.61542396 10.98774344 -6.86925014 9.61350029 -5.625 7.125 C-5.625 6.25875 -5.625 5.3925 -5.625 4.5 C-5.625 0.27573571 -3.94636342 0.1360815 0 0 Z " fill="#BEC1C5" transform="translate(33.625,15.875)"/>
<path d="M0 0 C0.33 0 0.66 0 1 0 C2.57116277 4.811686 3.5029999 8.86940098 3 14 C-0.69094468 16.46062979 -2.67044195 16.26816777 -7.0625 16.25 C-8.31160156 16.25515625 -9.56070312 16.2603125 -10.84765625 16.265625 C-14 16 -14 16 -16 14 C-16 13.01 -16 12.02 -16 11 C-11.05 11 -6.1 11 -1 11 C-1 10.34 -1 9.68 -1 9 C-7.6 9 -14.2 9 -21 9 C-21 8.67 -21 8.34 -21 8 C-11.1 7.505 -11.1 7.505 -1 7 C-0.67 4.69 -0.34 2.38 0 0 Z " fill="#C5C42C" transform="translate(23,18)"/>
<path d="M0 0 C-0.68907122 3.65943647 -1.56821266 7.22441959 -2.5625 10.8125 C-2.83191406 11.78832031 -3.10132813 12.76414062 -3.37890625 13.76953125 C-3.68634766 14.87361328 -3.68634766 14.87361328 -4 16 C-5.32 16.33 -6.64 16.66 -8 17 C-7.52346733 12.87005015 -6.94969302 9.65567442 -5 6 C-4.835 5.113125 -4.67 4.22625 -4.5 3.3125 C-4.335 2.549375 -4.17 1.78625 -4 1 C-2 0 -2 0 0 0 Z " fill="#E8EAEB" transform="translate(46,16)"/>
<path d="M0 0 C1.9375 1.125 1.9375 1.125 4 3 C4.75 6.1875 4.75 6.1875 5 9 C2.66705225 9.04241723 0.33297433 9.04092937 -2 9 C-3 8 -3 8 -3.25 5.625 C-3 3 -3 3 -1.5 1.1875 C-1.005 0.795625 -0.51 0.40375 0 0 Z " fill="#BEC3C0" transform="translate(29,24)"/>
<path d="M0 0 C6.93 0.495 6.93 0.495 14 1 C14 1.99 14 2.98 14 4 C7.73 4 1.46 4 -5 4 C-3.68 3.34 -2.36 2.68 -1 2 C-0.67 1.34 -0.34 0.68 0 0 Z " fill="#485229" transform="translate(6,19)"/>
<path d="M0 0 C5.28 0 10.56 0 16 0 C16 0.33 16 0.66 16 1 C14.35 1 12.7 1 11 1 C11 1.66 11 2.32 11 3 C11.99 3.33 12.98 3.66 14 4 C10.04 4 6.08 4 2 4 C1.34 2.68 0.68 1.36 0 0 Z " fill="#D7D530" transform="translate(5,16)"/>
<path d="M0 0 C-0.28482368 1.41805831 -0.57818144 2.83440379 -0.875 4.25 C-1.03742187 5.03890625 -1.19984375 5.8278125 -1.3671875 6.640625 C-1.99150075 8.96831144 -2.84838542 10.89031952 -4 13 C-4.99 12.34 -5.98 11.68 -7 11 C-6.814375 10.236875 -6.62875 9.47375 -6.4375 8.6875 C-5.77180827 5.91032625 -5.77180827 5.91032625 -7 3 C-3.375 0 -3.375 0 0 0 Z " fill="#303C46" transform="translate(41,20)"/>
<path d="M0 0 C0.66 0 1.32 0 2 0 C2.0825 0.7425 2.165 1.485 2.25 2.25 C2.78202131 5.1436233 2.78202131 5.1436233 5.125 7 C5.74375 7.66 6.3625 8.32 7 9 C6.875 11.6875 6.875 11.6875 6 14 C5.01 14.495 5.01 14.495 4 15 C3.731875 14.071875 3.46375 13.14375 3.1875 12.1875 C2.27748605 9.04085375 2.27748605 9.04085375 0.375 7.4375 C-1 6 -1 6 -1.25 3.375 C-1 1 -1 1 0 0 Z " fill="#DDE1E2" transform="translate(29,17)"/>
<path d="M0 0 C0.33 0 0.66 0 1 0 C2.5912689 4.873261 3.21192221 8.80790596 3 14 C2.34 12.68 1.68 11.36 1 10 C-6.26 9.67 -13.52 9.34 -21 9 C-21 8.67 -21 8.34 -21 8 C-11.1 7.505 -11.1 7.505 -1 7 C-0.67 4.69 -0.34 2.38 0 0 Z " fill="#C0C138" transform="translate(23,18)"/>
<path d="M0 0 C1.99954746 -0.04254356 4.00041636 -0.04080783 6 0 C7 1 7 1 7.0625 3.5625 C7.041875 4.366875 7.02125 5.17125 7 6 C5.02 6.99 5.02 6.99 3 8 C3 6.35 3 4.7 3 3 C2.01 2.67 1.02 2.34 0 2 C0 1.34 0 0.68 0 0 Z " fill="#EEEA23" transform="translate(16,17)"/>
<path d="M0 0 C0.33 0.99 0.66 1.98 1 3 C1.66 3.33 2.32 3.66 3 4 C2.34 5.98 1.68 7.96 1 10 C0.01 10 -0.98 10 -2 10 C-1.54177532 6.53058454 -1.10868317 3.32604951 0 0 Z " fill="#CACDD1" transform="translate(40,23)"/>
<path d="M0 0 C0.99 0.33 1.98 0.66 3 1 C2.67 2.65 2.34 4.3 2 6 C0.68 5.67 -0.64 5.34 -2 5 C-2 3.68 -2 2.36 -2 1 C-1.34 0.67 -0.68 0.34 0 0 Z " fill="#3E474E" transform="translate(30,26)"/>
<path d="M0 0 C1.32 0.33 2.64 0.66 4 1 C3.67 2.65 3.34 4.3 3 6 C2.01 5.67 1.02 5.34 0 5 C0 3.35 0 1.7 0 0 Z " fill="#323C46" transform="translate(31,17)"/>
</svg>
