<?xml version="1.0" standalone="no"?>
<!DOCTYPE svg PUBLIC "-//W3C//DTD SVG 20010904//EN"
 "http://www.w3.org/TR/2001/REC-SVG-20010904/DTD/svg10.dtd">
<svg version="1.0" xmlns="http://www.w3.org/2000/svg"
 width="977.000000pt" height="645.000000pt" viewBox="0 0 977.000000 645.000000"
 preserveAspectRatio="xMidYMid meet">
<metadata>
Created by potrace 1.16, written by Peter Selinger 2001-2019
</metadata>
<g transform="translate(0.000000,645.000000) scale(0.100000,-0.100000)"
fill="#000000" stroke="none">
<path fill="#FEDE0D" d="M1969 5791 c-25 -26 -29 -37 -28 -83 1 -82 32 -243 50 -262 5 -6 9
-18 9 -28 0 -10 4 -26 9 -36 5 -9 24 -48 42 -87 30 -65 105 -194 119 -205 4
-3 11 -12 16 -21 39 -69 263 -279 332 -312 12 -5 22 -14 22 -19 0 -4 5 -8 10
-8 6 0 27 -10 48 -23 63 -39 206 -96 312 -123 60 -16 214 -18 1940 -23 1031
-3 1884 -10 1895 -14 120 -51 182 -105 208 -181 44 -127 46 -158 21 -258 -39
-150 -114 -229 -265 -277 -26 -8 -835 -11 -3051 -11 -2957 0 -3015 0 -3037
-19 -34 -30 -44 -81 -31 -169 39 -281 171 -536 377 -732 140 -132 331 -252
473 -295 30 -9 64 -21 75 -25 11 -5 36 -11 55 -14 19 -3 55 -10 80 -15 28 -7
998 -10 2597 -11 2777 0 2609 3 2708 -55 53 -31 83 -66 119 -139 27 -54 28
-63 24 -164 -5 -131 -30 -191 -110 -270 -62 -61 -102 -87 -161 -104 -32 -10
-534 -14 -2167 -18 -2312 -5 -2152 -1 -2179 -61 -25 -56 2 -269 52 -414 46
-135 142 -310 224 -407 51 -61 165 -168 227 -212 68 -48 284 -156 314 -156 10
0 22 -3 26 -7 12 -12 119 -32 264 -48 115 -13 352 -15 1760 -11 1042 2 1656 8
1707 14 152 20 230 34 240 43 5 5 19 9 30 9 25 0 178 51 245 81 25 12 61 28
80 37 71 32 243 144 333 216 106 85 292 273 358 361 81 109 127 191 204 368
37 86 63 182 87 322 16 99 21 381 8 470 -13 90 -38 210 -50 240 -72 188 -123
293 -174 356 -12 15 -30 39 -41 55 -61 89 -298 304 -335 304 -21 0 -7 19 55
79 147 142 220 250 318 471 8 19 21 55 27 80 7 25 16 54 20 65 5 11 16 63 25
115 26 149 12 479 -24 565 -5 11 -14 40 -21 65 -25 94 -88 224 -163 335 -123
184 -269 329 -449 448 -76 50 -107 66 -238 124 -115 52 -203 76 -375 103 -116
19 -209 19 -2668 20 l-2549 0 -29 -29z"/>
</g>
</svg>
